# xmcd CD database file
#
# Track frame offsets:
#	150
#	13272
#	28243
#	44601
#	60768
#	72201
#	85265
#	103177
#	116805
#	130395
#	138175
#	154957
#	168466
#	186620
#	200143
#	213657
#	224402
#
# Disc length: 3339 seconds
#
# Revision: 1
# Processed by: cddbd v1.5.2PL0 Copyright (c) Steve Scherf et al.
# Submitted via: CDex 1.70beta2
#
DISCID=100d0911
DTITLE=music and melody - Jazz
DYEAR=2012
DGENRE=Jazz
TTITLE0=Bobby Darin - Beyond the Sea
TTITLE1=Peggy Lee - Fever
TTITLE2=Nina Simone - My Baby just cares for me
TTITLE3=Vic Damone - As Time goes by
TTITLE4=Dinah Washington - What a Difference a Day makes
TTITLE5=Nat King Cole - Smile
TTITLE6=Ella Fitzgerald - Get a Kick out of You
TTITLE7=Charly Barnet &his Orchstra - Skyliner
TTITLE8=Etta James - At Last
TTITLE9=Nancy Wilson - On the Street where you live
TTITLE10=Billie Hollday - Stormy Weather
TTITLE11=Annie Ross - The Way you look tonight
TTITLE12=Mel Torme - Send in the Clowns
TTITLE13=Dick Haymes - When I fall in Love
TTITLE14=Julie London - Cry me a River
TTITLE15=Rosemary Clooney&Perez Prado - Sway
TTITLE16=Jimmy Smith - On the sunny Side of the Street
EXTD=YEAR: 2012
EXTT0=
EXTT1=
EXTT2=
EXTT3=
EXTT4=
EXTT5=
EXTT6=
EXTT7=
EXTT8=
EXTT9=
EXTT10=
EXTT11=
EXTT12=
EXTT13=
EXTT14=
EXTT15=
EXTT16=
PLAYORDER=
